#!OML:ASF F:\VICON\USERDATA\INSTALL\rory3\rory3.ASF
:FULLY-SPECIFIED
:DEGREES
495
root -0.413512 29.0889 -4.55656 -171.736 -40.0353 178.287
lowerback 4.29138 -1.16472 -3.86727
upperback 0.0913057 -1.71517 1.73763
thorax -2.14625 -0.813871 4.06863
lowerneck -14.2592 2.74281 -11.813
upperneck 37.5976 4.33064 1.73062
head 15.2809 -0.594277 3.25787
rclavicle -6.56486e-014 3.73715e-014
rhumerus -33.6296 -9.97785 -77.7315
rradius 37.2918
rwrist 19.9025
rhand -21.2609 2.94441
rfingers 7.12502
rthumb 5.12246 -26.9737
lclavicle -6.56486e-014 3.73715e-014
lhumerus -29.3174 5.10289 82.6346
lradius 37.1362
lwrist -0.738113
lhand -15.2321 25.258
lfingers 7.12502
lthumb 10.9409 54.953
rfemur -27.0773 17.7708 7.61653
rtibia 32.3896
rfoot -8.19187 15.9638
rtoes -4.55339
lfemur -13.1697 -10.6241 -21.4767
ltibia 21.1181
lfoot -9.43376 -24.8872
ltoes 3.5204
496
root -0.38992 29.0819 -4.60887 -171.828 -41.0966 178.394
lowerback 4.39864 -1.11829 -3.75373
upperback 0.112664 -1.65135 1.77371
thorax -2.19275 -0.78272 4.0411
lowerneck -14.4164 2.79263 -11.5323
upperneck 37.7393 4.43353 1.58344
head 15.3922 -0.533144 3.17309
rclavicle -1.39149e-014 0
rhumerus -33.9193 -10.2574 -77.6104
rradius 37.4055
rwrist 19.6057
rhand -21.2029 2.74009
rfingers 7.12502
rthumb 5.17846 -27.1766
lclavicle -1.39149e-014 0
lhumerus -29.369 4.81261 82.5605
lradius 37.1391
lwrist -0.983539
lhand -14.9583 25.4232
lfingers 7.12502
lthumb 11.205 55.104
rfemur -26.7143 17.3155 8.14723
rtibia 32.2196
rfoot -7.36176 16.4782
rtoes -0.095495
lfemur -13.275 -11.0626 -21.0974
ltibia 21.3305
lfoot -9.284 -25.499
ltoes 4.07347
497
root -0.365754 29.0741 -4.66125 -171.849 -42.0565 178.377
lowerback 4.47937 -1.04837 -3.72525
upperback 0.203491 -1.55994 1.79351
thorax -2.1534 -0.740574 4.041
lowerneck -14.5533 2.77935 -11.237
upperneck 37.8556 4.47521 1.30509
head 15.5013 -0.51344 3.01863
rclavicle 3.98563e-014 -7.15625e-015
rhumerus -33.9544 -10.506 -77.4977
rradius 37.3815
rwrist 19.3704
rhand -21.0235 2.35358
rfingers 7.12502
rthumb 5.35164 -27.5588
lclavicle 3.98563e-014 -7.15625e-015
lhumerus -29.2012 4.86394 82.4203
lradius 36.8446
lwrist -1.37517
lhand -14.7819 25.0134
lfingers 7.12502
lthumb 11.3751 54.6849
rfemur -26.3069 16.892 8.58578
rtibia 32.1507
rfoot -6.98246 16.3087
rtoes 3.48645
lfemur -13.3667 -11.4503 -20.8346
ltibia 21.5342
lfoot -9.14033 -26.0486
ltoes 4.41066
498
root -0.342002 29.0719 -4.7165 -171.746 -42.9338 178.296
lowerback 4.47755 -0.983518 -3.73628
upperback 0.22905 -1.4737 1.82067
thorax -2.1334 -0.698464 4.07005
lowerneck -14.6226 2.80755 -11.0878
upperneck 37.979 4.59168 1.05817
head 15.5881 -0.48299 2.91125
rclavicle 4.26393e-014 -1.03368e-014
rhumerus -34.0918 -10.702 -77.3729
rradius 37.2659
rwrist 19.2511
rhand -21.3935 2.58041
rfingers 7.12502
rthumb 4.99437 -27.3407
lclavicle 4.26393e-014 -1.03368e-014
lhumerus -29.0483 5.47751 82.1666
lradius 36.3674
lwrist -2.13952
lhand -14.4915 24.4007
lfingers 7.12502
lthumb 11.6552 54.0565
rfemur -26.0117 16.8593 8.8333
rtibia 32.1891
rfoot -7.38179 15.0636
rtoes 4.61555
lfemur -13.5114 -11.7037 -20.6154
ltibia 21.6891
lfoot -9.07137 -26.5883
ltoes 4.60007
499
root -0.315242 29.073 -4.77424 -171.671 -43.8113 178.327
lowerback 4.54709 -0.894076 -3.60843
upperback 0.128662 -1.35008 1.77577
thorax -2.292 -0.631936 3.94717
lowerneck -14.5106 2.86641 -10.7353
upperneck 38.146 4.63272 0.841107
head 15.6606 -0.457132 2.7649
rclavicle 1.54555e-013 7.95139e-016
rhumerus -34.4958 -11.1225 -77.3315
rradius 37.1327
rwrist 19.1696
rhand -21.8397 2.99167
rfingers 7.12502
rthumb 4.56356 -26.9392
lclavicle 1.54555e-013 7.95139e-016
lhumerus -28.9225 6.32049 81.6745
lradius 35.6371
lwrist -3.12776
lhand -14.3515 23.9228
lfingers 7.12502
lthumb 11.7901 53.5709
rfemur -25.7943 17.2408 9.04564
rtibia 32.302
rfoot -8.42614 12.8761
rtoes 3.58354
lfemur -13.6795 -11.9166 -20.2769
ltibia 21.7562
lfoot -8.95626 -27.2014
ltoes 4.91089
500
root -0.289322 29.0715 -4.83449 -171.42 -44.7101 178.132
lowerback 4.70082 -0.813135 -3.60949
upperback -0.0737022 -1.24741 1.68238
thorax -2.59897 -0.569017 3.85107
lowerneck -14.2829 2.97719 -10.3377
upperneck 38.3643 4.73357 0.541225
head 15.733 -0.420602 2.58041
rclavicle -1.38454e-013 8.74653e-015
rhumerus -35.0282 -11.3923 -77.279
rradius 37.0291
rwrist 19.0211
rhand -22.1484 3.16323
rfingers 7.12502
rthumb 4.26544 -26.7738
lclavicle -1.38454e-013 8.74653e-015
lhumerus -28.8206 7.60675 81.0218
lradius 34.5549
lwrist -4.36738
lhand -14.4802 22.6922
lfingers 7.12502
lthumb 11.6661 52.3474
rfemur -25.5578 17.4534 9.13676
rtibia 32.4261
rfoot -9.50036 10.8496
rtoes 1.98967
lfemur -13.8264 -12.1839 -20.1066
ltibia 21.751
lfoot -8.7632 -27.784
ltoes 5.33369
501
root -0.264851 29.0734 -4.8941 -171.091 -45.6185 177.808
lowerback 4.80133 -0.743897 -3.70361
upperback -0.197242 -1.16406 1.63095
thorax -2.79014 -0.518997 3.84939
lowerneck -14.2232 3.05731 -10.2125
upperneck 38.5845 4.86235 0.386594
head 15.8335 -0.387868 2.51421
rclavicle 1.66482e-014 3.18055e-015
rhumerus -35.4068 -11.4633 -77.1435
rradius 36.9031
rwrist 18.8953
rhand -22.4673 3.2576
rfingers 7.12502
rthumb 3.95751 -26.6854
lclavicle 1.66482e-014 3.18055e-015
lhumerus -28.8752 8.13301 80.8635
lradius 34.4023
lwrist -4.08609
lhand -15.2569 24.0381
lfingers 7.12502
lthumb 10.917 53.7343
rfemur -25.2968 17.5537 9.18151
rtibia 32.5152
rfoot -10.0547 9.70984
rtoes 2.62574
lfemur -13.9212 -12.5387 -20.0238
ltibia 21.7112
lfoot -8.38115 -28.2459
ltoes 6.48566
